M48
;DRILL file {KiCad 4.0.7} date Tuesday, June 05, 2018 'PMt' 11:44:45 PM
;FORMAT={-:-/ absolute / inch / decimal}
FMAT,2
INCH,TZ
T1C0.016
T2C0.030
T3C0.031
%
G90
G05
M72
T1
X0.1055Y-0.6224
X0.1457Y-0.5815
X0.1654Y-0.1764
X0.1654Y-0.2047
X0.2087Y-0.189
X0.2183Y-0.06
X0.2528Y-0.1736
X0.2535Y-0.2047
X0.3043Y-0.2496
X0.3098Y-0.0984
X0.3169Y-0.6705
X0.3323Y-0.4539
X0.3535Y-0.1386
X0.361Y-0.4531
X0.385Y-0.5272
X0.3898Y-0.452
X0.3945Y-0.576
X0.3949Y-0.2161
X0.4283Y-0.4547
X0.44Y-0.23
X0.452Y-0.5646
X0.4575Y-0.5228
X0.4646Y-0.2673
X0.4941Y-0.4965
X0.498Y-0.2701
X0.51Y-0.23
X0.5354Y-0.6488
X0.5409Y-0.2575
X0.5661Y-0.2217
X0.578Y-0.6335
X0.5894Y-0.3102
X0.5921Y-0.2531
X0.6807Y-0.5248
X0.6831Y-0.4807
X0.7307Y-0.2157
X0.7382Y-0.2709
X0.8256Y-0.5469
X0.8362Y-0.2602
X0.837Y-0.4433
X0.9264Y-0.3504
X1.0051Y-0.226
X1.0177Y-0.4409
X1.0189Y-0.2567
X1.02Y-0.04
X1.02Y-0.07
X1.02Y-0.1
X1.0358Y-0.572
X1.0409Y-0.4996
X1.05Y-0.02
X1.05Y-0.1
X1.08Y-0.02
X1.08Y-0.1
X1.11Y-0.02
X1.11Y-0.1
X1.13Y-0.26
X1.13Y-0.3
X1.13Y-0.33
X1.13Y-0.36
X1.13Y-0.39
X1.13Y-0.41
X1.13Y-0.44
X1.14Y-0.02
X1.14Y-0.1
X1.14Y-0.62
X1.14Y-0.65
X1.14Y-0.68
X1.16Y-0.26
X1.16Y-0.44
X1.17Y-0.02
X1.17Y-0.1
X1.17Y-0.62
X1.17Y-0.68
X1.19Y-0.1
X1.19Y-0.26
X1.19Y-0.44
X1.2Y-0.02
X1.2Y-0.62
X1.2Y-0.68
X1.22Y-0.1
X1.22Y-0.26
X1.22Y-0.44
X1.23Y-0.02
X1.23Y-0.62
X1.23Y-0.68
X1.25Y-0.1
X1.25Y-0.26
X1.25Y-0.44
X1.26Y-0.62
X1.26Y-0.68
X1.27Y-0.02
X1.27Y-0.12
X1.27Y-0.15
X1.27Y-0.18
X1.27Y-0.21
X1.27Y-0.24
X1.28Y-0.44
X1.29Y-0.62
X1.29Y-0.68
X1.3Y-0.02
X1.31Y-0.45
X1.31Y-0.48
X1.31Y-0.51
X1.31Y-0.54
X1.31Y-0.57
X1.31Y-0.6
X1.32Y-0.68
X1.33Y-0.02
X1.34Y-0.68
X1.36Y-0.02
X1.37Y-0.68
X1.39Y-0.02
X1.4Y-0.68
X1.42Y-0.02
X1.43Y-0.05
X1.43Y-0.65
X1.43Y-0.67
X1.46Y-0.07
X1.46Y-0.64
X1.48Y-0.09
X1.48Y-0.12
X1.48Y-0.15
X1.48Y-0.18
X1.48Y-0.21
X1.48Y-0.24
X1.48Y-0.27
X1.48Y-0.3
X1.48Y-0.33
X1.48Y-0.36
X1.48Y-0.39
X1.48Y-0.42
X1.48Y-0.45
X1.48Y-0.48
X1.48Y-0.51
X1.48Y-0.54
X1.48Y-0.57
X1.48Y-0.6
X1.48Y-0.63
T2
X1.126Y-0.1772
X1.126Y-0.5236
T3
X0.0933Y-0.2362
X0.0933Y-0.315
X0.0933Y-0.3937
X0.0933Y-0.4724
T0
M30
